<?xml version="1.0" encoding="utf-8"?>
<!DOCTYPE svg PUBLIC "-//W3C//DTD SVG 1.0//EN" "http://www.w3.org/TR/2001/REC-SVG-20010904/DTD/svg10.dtd">
<svg version="1.0" xmlns="http://www.w3.org/2000/svg" width="512px" height="512px" viewBox="0 0 512 512" preserveAspectRatio="xMidYMid meet">
 <g fill="#edeff0">
  <path d="M 100.6 401 c -28.9 -30.3 -48 -69.8 -55.2 -114.5 -2.5 -15.2 -2.5 -45.8 0 -61 7.4 -46 26.2 -84.2 57.1 -116.3 33.7 -35.1 74.8 -56.3 123.5 -63.9 15.7 -2.4 45.4 -2.4 60.5 0.1 45.9 7.4 84.2 26.2 116.3 57.1 29.8 28.7 49.6 62.7 59.7 102.4 8.1 32.4 8.1 69.8 0 102.2 -9.3 36.6 -29.7 73.2 -54.2 97.1 l -4.8 4.8 -9 -8.8 c -11.6 -11.2 -19.5 -15.6 -50 -27.8 -13.2 -5.3 -25.6 -10.3 -27.5 -11.1 -1.9 -0.9 -5.5 -2.4 -8 -3.5 -2.5 -1.1 -5.2 -2.3 -6 -2.7 -1.3 -0.7 -1.5 -5.5 -1.8 -31.7 l -0.3 -30.9 2.7 -5.7 c 1.5 -3.2 3.1 -5.8 3.6 -5.8 0.4 0 0.8 -1.1 0.8 -2.5 0 -1.4 0.5 -2.5 1 -2.5 0.6 0 1 -0.7 1 -1.5 0 -0.9 0.8 -1.8 1.8 -2.1 8.3 -2.7 9.4 -4.1 11.1 -15.1 0.6 -4 2.5 -11 4.2 -15.7 2.9 -8 3 -8.6 1.5 -11.5 -1.8 -3.4 -4.4 -5.1 -7.7 -5.1 -2.1 0 -2.2 -0.3 -1.5 -6.1 0.3 -3.4 0.6 -7.3 0.6 -8.5 0 -1.7 0.6 -2.4 2 -2.4 2.6 0 2.6 -3.3 0 -10.2 -2.6 -7 -2.6 -10.6 0 -11 1.9 -0.3 1.9 -0.6 -1 -6.7 -1.7 -3.5 -4 -7.6 -5.1 -9.3 -1.6 -2.2 -2 -3.9 -1.6 -6.9 0.5 -3.7 0.2 -4.4 -5 -10 -6.1 -6.6 -18.1 -13.2 -26 -14.5 -3.3 -0.5 -4.3 -1.1 -4.3 -2.5 0 -1.6 -0.8 -1.9 -4.7 -1.9 -2.7 0 -7.5 0.7 -10.8 1.5 -7.5 1.8 -12.2 1.9 -12.8 0.3 -0.3 -0.9 -1.4 -0.4 -3.4 1.5 -3.1 2.9 -8 3.6 -10.1 1.5 -0.9 -0.9 -1.2 -0.9 -1.2 0.1 0 1.1 -1.3 1.2 -6 0.8 -5.9 -0.7 -6 -0.6 -6 1.8 0 2 -0.6 2.5 -3.7 3.1 -2.1 0.4 -6.8 2 -10.5 3.7 -6.2 2.7 -6.8 3.2 -6.8 5.9 0 2.1 -1.1 4.2 -3.7 6.9 -2 2.1 -4.5 5.2 -5.6 6.9 -1.7 2.6 -1.7 3 -0.3 3 2.1 0 2.1 5.1 0 9.2 -2 3.8 -3.1 7.6 -4.4 14.2 -1.1 5.6 -0.6 8.6 1.6 8.6 1.1 0 1.4 1.5 1.4 6.4 0 9.1 -0.9 12.6 -3.1 12.6 -1.1 0 -1.9 0.5 -1.9 1 0 0.6 -1 1 -2.3 1 -1.7 0 -2.5 0.9 -3.5 4 -1.6 5.3 -1.6 5.7 1.2 12.7 1.4 3.3 3.2 10.2 4.1 15.4 1.8 10.6 3.6 13.2 9.4 14.6 2.8 0.7 3.7 1.4 4 3.3 0.1 1.4 0.6 2.7 1 3 0.7 0.6 3.7 7.3 4.6 10.8 0.4 1.2 1 2.2 1.5 2.2 0.5 0 1.1 1.3 1.5 3 0.4 1.7 1.1 3 1.6 3 0.5 0 0.9 12 0.9 28.9 l 0 29 -2.2 0.6 c -2.9 0.8 -5.2 1.7 -10.8 4.4 -2.5 1.1 -16 6.7 -30.1 12.4 -31.9 12.8 -38.7 16.6 -50.4 27.9 -4.9 4.9 -9.1 8.8 -9.1 8.8 -0.1 0 -3.6 -3.6 -7.8 -8 z "/>
 </g>
 <g fill="#f37046">
  <path d="M 235.5 467.9 c -32.8 -3.2 -69.1 -16.1 -96.5 -34.4 -11.4 -7.6 -23.8 -17.5 -30 -23.9 l -3.5 -3.7 9.1 -8.7 c 11.6 -11.3 18.5 -15.1 50.3 -27.9 14.1 -5.6 27.3 -11.2 29.3 -12.2 l 3.7 -1.9 1.7 5.6 c 2.4 7.6 10.2 19 17.2 25.1 10.8 9.6 26.6 16.1 38.8 16.1 23.9 -0.1 48.7 -18.3 57 -41.8 l 1.8 -5 3 1.7 c 1.7 1 14.6 6.3 28.6 11.9 32.1 12.8 39.8 17.1 51.5 28.4 l 8.9 8.7 -2.9 3.2 c -5.7 6.1 -21.1 18.3 -31.5 25.1 -39.8 26.1 -89.1 38.2 -136.5 33.7 z "/>
 </g>
 <g fill="#f5e0cd">
  <path d="M 314 360 c 0 -0.5 -0.7 -1 -1.5 -1 -0.8 0 -1.5 -0.4 -1.5 -1 0 -0.5 -0.8 -1 -1.7 -1 -0.9 0 -3.2 -0.5 -5 -1.2 -2.8 -1 -3.3 -1.7 -3.3 -4.5 0 -3.8 2 -4.4 3.5 -1 0.6 1.2 1.5 2.1 2 2 0.6 -0.1 2.4 0.7 4 1.7 1.7 1 3.2 1.9 3.5 1.9 1.3 0 5.3 2 4.3 2 -0.7 0.1 -1.3 0.8 -1.3 1.6 0 0.8 -0.7 1.5 -1.5 1.5 -0.8 0 -1.5 -0.4 -1.5 -1 z "/>
  <path d="M 194.8 358.4 c -1.1 -1 3.3 -4.6 4.8 -4 0.8 0.3 1.7 -0.1 2 -0.8 0.8 -2.1 6.4 -1.7 6.4 0.4 0 2.7 -11.2 6.4 -13.2 4.4 z "/>
  <path d="M 239.2 334.1 c -7.3 -2.7 -16.7 -9.6 -24.6 -18.2 -6 -6.5 -6.6 -7.5 -6.6 -11.5 0 -2.4 -0.4 -4.4 -0.9 -4.4 -0.8 0 -2.4 -3.7 -2.2 -5.2 0.1 -0.5 -0.3 -0.8 -0.8 -0.8 -1 0 -2.7 -3.9 -2.3 -5.2 0.1 -0.5 -0.3 -0.8 -0.9 -0.8 -0.5 0 -0.7 -0.4 -0.4 -1 0.3 -0.5 0.1 -1 -0.6 -1 -0.7 0 -0.9 -0.3 -0.6 -0.7 0.4 -0.3 0.2 -1.2 -0.4 -2 -0.6 -0.7 -0.8 -1.3 -0.3 -1.3 0.5 0 0.3 -0.4 -0.3 -0.8 -0.7 -0.4 -1.4 -1.9 -1.6 -3.2 -0.3 -1.8 -1.3 -2.6 -3.8 -3.3 -4.1 -1 -7.9 -4.4 -7.9 -6.9 0 -1 -0.4 -1.8 -0.8 -1.8 -0.5 0 -0.7 -1.4 -0.4 -3 0.2 -1.7 0 -3 -0.5 -3 -0.5 0 -0.8 -1.3 -0.5 -3 0.2 -1.7 0 -3 -0.6 -3 -0.6 0 -0.8 -0.9 -0.5 -2 0.3 -1.1 0 -2 -0.6 -2 -0.5 0 -0.8 -0.7 -0.5 -1.5 0.4 -0.8 0.1 -1.5 -0.6 -1.5 -0.6 0 -0.8 -0.4 -0.5 -1 0.3 -0.5 0.2 -1 -0.4 -1 -0.6 0 -0.8 -0.7 -0.5 -1.5 0.4 -0.8 0.2 -1.5 -0.3 -1.5 -0.5 0 -0.9 -0.9 -1 -2 -0.1 -1.3 0.4 -2 1.6 -2 2.4 0 5.4 9.3 7.2 21.8 0.9 6.7 1.7 9.2 2.7 9.2 1 0 1.2 -0.7 0.8 -2.2 -1.7 -6.2 -1.7 -13.4 -0.1 -24.4 1.4 -9.8 2.3 -13.2 5.5 -19.4 4.6 -9.1 7 -16.9 7 -22.6 0 -6.2 1.5 -9.3 5.3 -10.9 1.9 -0.8 10.8 -1.8 21.2 -2.5 9.9 -0.6 22.1 -1.5 27 -2 25.5 -2.7 47.9 0.3 51.5 6.9 0.5 1.1 1 6 1 11 0 8.6 0.2 9.3 4.5 18.2 2.5 5.1 5 11.9 5.7 15.1 0.9 4.5 1.6 5.8 3 5.8 1.3 0 1.8 0.8 1.8 3 0 1.7 0.5 3 1 3 0.6 0 1 -1 1 -2.2 0 -1.3 0.8 -4.4 1.7 -7 1.4 -3.8 2.2 -4.8 4 -4.8 3 0 2.9 1 -0.7 10.8 -1.6 4.5 -3.5 11.5 -4.1 15.5 -1.7 11 -2.7 12.4 -11.1 15.1 -1 0.3 -1.8 1.2 -1.8 2.1 0 0.8 -0.4 1.5 -1 1.5 -0.5 0 -0.7 0.6 -0.4 1.4 0.3 0.7 -0.2 2 -1 2.9 -0.8 0.8 -1.2 1.7 -0.9 2.1 0.4 0.3 0.1 0.6 -0.6 0.6 -0.7 0 -0.9 0.5 -0.6 1 0.3 0.6 0.1 1 -0.5 1 -0.6 0 -0.8 0.5 -0.5 1 0.3 0.6 0.1 1 -0.5 1 -0.6 0 -0.8 0.5 -0.5 1 0.3 0.6 0.1 1 -0.5 1 -0.6 0 -0.8 0.5 -0.5 1 0.3 0.6 0.2 1 -0.2 1 -0.5 0 -1 1.9 -1.1 4.3 -0.5 8.4 -17.1 27.3 -29.7 33.7 -6.5 3.3 -7.5 3.5 -18.4 3.8 -9.5 0.2 -12.6 -0.2 -16.9 -1.7 z "/>
  <path d="M 177 235.6 c 0 -0.9 -0.4 -1.6 -1 -1.6 -0.5 0 -1 -0.7 -1 -1.5 0 -0.8 0.5 -1.5 1 -1.5 0.6 0 1 -0.7 1 -1.5 0 -0.8 0.7 -1.5 1.6 -1.5 1.2 0 1.4 0.9 1.2 4.2 -0.3 3.8 -2.8 6.9 -2.8 3.4 z "/>
  <path d="M 328 228.5 c 0 -4.2 2.1 -4.7 3.8 -1 1.7 3.7 1.5 4.5 -1.3 4.5 -2.2 0 -2.5 -0.4 -2.5 -3.5 z "/>
  <path d="M 178.5 224.8 c 0.1 -1.7 0.9 -2.4 2.8 -2.6 1.5 -0.2 2.7 -0.8 2.7 -1.3 0 -0.5 0.9 -0.9 2 -0.9 1.1 0 2 -0.7 2 -1.5 0 -0.8 0.7 -1.5 1.5 -1.5 1 0 1.5 1 1.5 3.3 0 3 -0.4 3.4 -4.9 5 -6.5 2.3 -7.8 2.2 -7.6 -0.5 z "/>
 </g>
 <g fill="#f0d0b4">
  <path d="M 239.5 403.1 c -8.4 -2.4 -19 -8.2 -25.6 -14.1 -7 -6.1 -14.2 -16.6 -17 -24.5 -1.1 -3.3 -2.5 -6.2 -3 -6.5 -0.4 -0.3 2.5 -1.9 6.6 -3.4 l 7.5 -2.9 0 -25.1 0 -25.1 2.7 3.5 c 9.6 12.4 22.3 22.7 32 26.2 9.1 3.1 19.9 2.3 28.8 -2.2 7.6 -3.9 19.5 -15 25.5 -23.8 1.9 -2.9 4.3 -5.2 5.3 -5.2 1.6 0 1.7 1.9 1.7 25.8 l 0 25.9 6.1 2.4 c 3.4 1.3 6.4 3 6.6 3.7 0.3 0.7 -0.3 3.4 -1.3 6 -7.2 19.1 -25.3 35.1 -44.5 39.7 -8.6 2 -23.8 1.8 -31.4 -0.4 z "/>
  <path d="M 191.2 273.8 c -0.7 -0.7 -1.2 -0.9 -1.2 -0.5 0 0.4 -1.1 -0.2 -2.4 -1.5 -2 -1.8 -2.8 -4.3 -4.1 -11.7 -0.9 -5.2 -2.7 -12.2 -4.1 -15.5 -4.7 -11.4 -2.8 -20.5 4.6 -22.7 2.2 -0.7 4 -1.8 4 -2.6 0 -0.7 0.6 -1.3 1.3 -1.3 2.1 0 4 23.7 2.6 31.6 -0.9 5.2 -0.8 7.3 1 14.8 1.2 4.8 2.1 9.2 2.1 9.7 0 1.3 -2.4 1.1 -3.8 -0.3 z "/>
  <path d="M 314.4 273.7 c -0.2 -0.8 0.4 -5 1.6 -9.4 1.7 -6.8 1.9 -9.1 1.1 -14.1 -0.7 -4.5 -0.6 -8.1 0.4 -13.9 0.8 -4.3 1.4 -9.9 1.5 -12.5 0 -4.1 0.3 -4.8 2 -4.8 1.3 0 1.8 0.5 1.4 1.5 -0.5 1.1 0.1 1.5 2 1.5 2.9 0 8.1 4.4 7.1 6 -0.3 0.6 -0.1 1 0.4 1 0.6 0 1.1 1.8 1.1 4 0 2.2 -0.4 4 -1 4 -0.5 0 -0.7 0.7 -0.4 1.5 0.4 0.8 0.1 1.5 -0.6 1.5 -0.6 0 -0.8 0.5 -0.5 1 0.3 0.6 0.2 1 -0.4 1 -0.6 0 -0.8 0.7 -0.5 1.5 0.4 0.8 0.2 1.5 -0.4 1.5 -0.6 0 -0.8 0.8 -0.5 1.9 0.2 1 -0.2 2.5 -1 3.2 -0.8 0.7 -1.2 2.1 -0.9 3.1 0.2 1 0 1.8 -0.5 1.8 -0.5 0 -0.7 1.6 -0.5 3.5 0.2 1.9 0 3.5 -0.6 3.5 -0.5 0 -0.7 1.1 -0.4 2.5 0.2 1.5 0 2.5 -0.7 2.5 -0.7 0 -0.9 0.5 -0.6 1 0.3 0.6 0.2 1 -0.4 1 -0.6 0 -0.8 0.7 -0.5 1.5 0.5 1.1 -0.1 1.5 -1.9 1.5 -1.4 0 -3.3 0.7 -4.1 1.6 -1.4 1.3 -1.7 1.3 -2.2 0.1 z "/>
 </g>
 <g fill="#556080">
  <path d="M 317.1 249.9 c -0.2 -6.3 -3.8 -18.4 -8.2 -27 -4.2 -8.2 -4.3 -8.7 -4.1 -17.3 0.1 -4.9 -0.3 -9.7 -0.9 -10.7 -1.8 -3.4 -8.4 -5.9 -18.8 -7.1 -8.3 -1 -13.8 -0.9 -31.3 0.5 -11.7 0.9 -25.6 2 -30.8 2.3 -15 1 -18 3.1 -18 12.8 0 5.7 -2.4 13.5 -7 22.6 -3.1 5.9 -4.2 9.5 -5.1 17 l -1.3 9.5 -1.4 -6.5 c -0.7 -3.7 -1.4 -13.5 -1.5 -22.7 -0.1 -13 -0.4 -15.8 -1.3 -14.1 -1 1.9 -1.2 1.4 -1.9 -4 -1 -8.6 1 -19.3 5 -27.3 l 1.7 -3.4 -4.1 4 c -4.6 4.4 -5 3.8 -2.1 -3.6 2.3 -5.9 6.4 -11.9 11 -16.7 l 3.2 -3.2 -3.1 0 c -1.7 0 -3.1 -0.4 -3.1 -0.8 0 -2.1 16.4 -10.3 23.5 -11.7 l 4 -0.8 -5 -1.2 c -4.2 -1 -4.7 -1.3 -3 -2.1 1.1 -0.5 5.9 -0.9 10.7 -0.9 l 8.6 0 0.7 -4 0.6 -4 3.7 4.2 3.7 4.2 3.9 -3.4 c 4.7 -4.2 11.1 -7.4 16.3 -8.2 l 3.8 -0.5 -5.2 3.6 c -5.7 3.9 -7.7 6.2 -4.7 5.2 8.7 -2.6 28.4 -3.7 28.4 -1.6 0 0.6 -0.4 1 -1 1 -0.5 0 -1 0.4 -1 0.9 0 0.5 1.9 1.1 4.1 1.5 6.4 1 18.2 6.9 23.5 11.7 4.4 4.1 12.4 15.1 12.4 17.1 0 0.4 -1.2 0.5 -2.7 0.2 l -2.7 -0.7 2.2 3.1 c 4 5.5 8.2 15.8 8.9 21.3 l 0.6 5.4 -2.6 -2.4 -2.6 -2.4 1.9 5.2 c 1.4 3.5 2 7.5 2 12.9 -0.1 7.7 -0.1 7.7 -1.9 5.5 -1.9 -2.3 -1.9 -2.2 -2.6 7.5 -0.7 10.1 -2.8 24.5 -4.4 29.7 l -0.9 3 -0.1 -3.6 z "/>
 </g>
</svg>