<?xml version="1.0" standalone="no"?>
<!DOCTYPE svg PUBLIC "-//W3C//DTD SVG 20010904//EN"
 "http://www.w3.org/TR/2001/REC-SVG-20010904/DTD/svg10.dtd">
<svg version="1.0" xmlns="http://www.w3.org/2000/svg"
 width="512.000000pt" height="512.000000pt" viewBox="0 0 512.000000 512.000000"
 preserveAspectRatio="xMidYMid meet">

<g transform="translate(0.000000,512.000000) scale(0.100000,-0.100000)"
fill="#000000" stroke="none">
<path d="M2360 4790 c-397 -49 -777 -212 -1112 -478 l-75 -60 -194 194 c-213
214 -256 244 -343 244 -74 0 -143 -42 -179 -108 l-27 -50 2 -650 3 -650 30
-44 c17 -23 51 -54 75 -68 l45 -25 640 0 c636 0 640 0 680 22 76 40 118 108
118 188 0 86 -21 116 -214 311 l-181 182 80 60 c364 270 751 356 1190 266 192
-39 423 -142 592 -262 52 -37 142 -114 200 -172 430 -430 578 -1052 389 -1633
-41 -126 -136 -313 -217 -427 -37 -52 -114 -142 -172 -200 -302 -302 -706
-470 -1130 -470 -655 0 -1242 400 -1490 1016 -53 131 -111 189 -207 207 -31 6
-237 -30 -311 -54 -41 -14 -98 -62 -118 -101 -38 -74 -4 -207 116 -453 285
-583 819 -1019 1445 -1180 211 -54 332 -69 565 -69 233 0 353 15 569 70 774
198 1397 822 1596 1598 54 212 69 333 69 566 0 233 -15 354 -69 567 -221 860
-950 1515 -1835 1648 -127 19 -427 27 -530 15z"/>
</g>
</svg>
