<?xml version="1.0" standalone="no"?>
<!DOCTYPE svg PUBLIC "-//W3C//DTD SVG 20010904//EN"
 "http://www.w3.org/TR/2001/REC-SVG-20010904/DTD/svg10.dtd">
<svg version="1.0" xmlns="http://www.w3.org/2000/svg"
 width="512.000000pt" height="512.000000pt" viewBox="0 0 512.000000 512.000000"
 preserveAspectRatio="xMidYMid meet">

<g transform="translate(0.000000,512.000000) scale(0.100000,-0.100000)"
fill="#000000" stroke="none">
<path d="M2260 5099 c-415 -87 -782 -340 -1018 -701 -256 -393 -320 -902 -171
-1353 69 -206 177 -390 339 -575 230 -262 327 -486 350 -803 10 -132 24 -168
80 -202 34 -20 49 -20 730 -20 639 0 698 1 727 17 53 29 71 71 78 183 17 245
85 456 210 645 24 36 87 115 140 175 218 249 346 507 401 811 24 134 25 402 1
534 -62 341 -211 626 -453 865 -218 216 -504 367 -805 426 -143 27 -473 26
-609 -2z m580 -298 c425 -97 768 -393 924 -797 59 -153 79 -266 80 -449 1
-350 -104 -624 -343 -890 -236 -262 -369 -544 -416 -877 l-6 -48 -509 0 -510
0 -4 23 c-2 12 -12 65 -21 117 -49 279 -173 528 -385 770 -205 236 -304 440
-345 710 -40 257 0 501 120 745 75 152 136 237 257 357 192 190 455 320 721
358 97 14 339 3 437 -19z"/>
<path d="M1885 1255 c-118 -42 -135 -196 -28 -266 27 -18 63 -19 706 -19 741
0 718 -2 761 57 31 42 33 124 6 168 -45 73 -8 70 -745 72 -551 2 -667 0 -700
-12z"/>
<path d="M1892 783 c-35 -7 -89 -64 -101 -109 -13 -48 -2 -96 31 -132 51 -54
25 -52 750 -52 654 0 674 1 706 20 101 62 95 212 -11 260 -40 19 -71 20 -697
18 -360 0 -665 -3 -678 -5z"/>
<path d="M2100 291 c-55 -29 -75 -64 -75 -131 0 -67 20 -102 75 -131 32 -18
65 -19 470 -19 432 0 435 0 474 23 102 58 98 211 -8 261 -30 14 -88 16 -468
16 -403 0 -436 -1 -468 -19z"/>
</g>
</svg>
